<?xml version="1.0" encoding="UTF-8" standalone="no"?>
<svg xmlns="http://www.w3.org/2000/svg" xml:space="preserve" x="0px" y="0px" viewBox="0 0 35 43">
  <path fill="#d9dcde" fill-rule="evenodd" d="M28.032 31.919C25.223 35.154 17.381 42.23 17.381 42.23S8.696 34.18 6.738 31.796C4.78 29.413.1 23.68.1 18.138.1 8.547 7.876.771 17.467.771c9.592 0 17.368 7.776 17.368 17.367-.001 5.615-3.992 10.547-6.803 13.781z" clip-rule="evenodd"/>
  <path fill="#FFF" fill-rule="evenodd" d="M17.467 3.833c7.548 0 13.667 6.119 13.667 13.667s-6.119 13.668-13.667 13.668S3.8 25.048 3.8 17.5C3.799 9.951 9.918 3.833 17.467 3.833z" clip-rule="evenodd"/>
  <g stroke-linecap="round" stroke-linejoin="round" stroke-width=".36133329" paint-order="stroke fill markers">
      <path fill="#f44a52" fill-rule="evenodd" d="M23.483 13.485c-.944-1.76-3.58-2.922-6.093-2.913-2.362.008-4.695.838-5.933 2.621-.742 1.074-.75 2.008-.4 2.623.915 1.611 2.718.128 2.806-1.067.058-.785 1.686-1.676 3.528-1.651 1.995.027 4.44.814 4.49 2.621.051 1.81-1.523 1.936-2.592 2.439l-.104 2.599s2.475-.829 3.577-1.833c1.488-1.356 1.53-3.926.72-5.44zm-9.178 10.364c-.028-1.172.201-1.434 1.534-2.03l-.185-2.337c-1.096.42-2.455 1.292-3.032 2.326-.548.983-.82 2.678.32 3.982 1.031 1.178 3.803 1.679 5.532 2.137 1.982.528 1.967 1.637.074 2.303 0 0-.143 2.227-.123 2.097 2.598-.964 3.847-1.75 3.337-4.398-.541-2.8-7.416-2.38-7.457-4.08zm2.685 10.388c-1.074-.602-.681-2.912-.681-2.912-2.62.977-1.912 3.325-.401 4.175 1.445.813 2.903 1.614 1.843 3.787.466-.505 1.6-2.312 1.124-3.201-.475-.893-1.155-1.439-1.885-1.85z" clip-rule="evenodd"/>
      <g transform="matrix(1.2273 0 0 1.56017 -3.943 -6.25)">
         <ellipse cx="17.309" cy="8.5380001" fill="#585858" fill-rule="evenodd" clip-rule="evenodd" rx="3.45" ry="1.52"/>
         <path fill="#585858" fill-rule="evenodd" d="M18.631 10.494c.06-1.003.094-1.494.084-1.494h.073s-2.677-.182-2.67-.093c.017.239.05.752.096 1.562 0 0 .563-.084 1.239-.084.676 0 1.178.109 1.178.109zM18.034 19.818c.161-2.396.311-4.903.436-6.828 0 0-.472-.097-1.064-.097-.708 0-1.063.096-1.063.096l.361 6.613s.368.067.654.107c.285.041.676.109.676.109zM17.64 25.368l.205-3.016s-.27-.039-.504-.097c-.293-.072-.505-.061-.505-.061l.162 2.951zM17.153 27.943l.14 2.494.156-2.275z" clip-rule="evenodd"/>
      </g>
  </g>
</svg>
